<svg xmlns="http://www.w3.org/2000/svg" width="32" height="32" viewBox="0 0 32 32"><path d="M19,25 20,25 20,26 19,26 M19,26 20,26 20,27 19,27 M19,27 20,27 20,28 19,28 " fill="#372716"></path><path d="M11,25 12,25 12,26 11,26 M11,26 12,26 12,27 11,27 M11,27 12,27 12,28 11,28 M5,25 6,25 6,26 5,26 M5,26 6,26 6,27 5,27 M5,27 6,27 6,28 5,28 M20,25 21,25 21,26 20,26 M20,26 21,26 21,27 20,27 M20,27 21,27 21,28 20,28 " fill="#382816"></path><path d="M16,9 17,9 17,10 16,10 M17,8 18,8 18,9 17,9 M14,9 15,9 15,10 14,10 M13,8 14,8 14,9 13,9 " fill="#646365"></path><path d="M18,7 19,7 19,8 18,8 M12,7 13,7 13,8 12,8 " fill="#868188"></path><path d="M5,11 6,11 6,12 5,12 M5,12 6,12 6,13 5,13 M6,12 7,12 7,13 6,13 M5,16 6,16 6,17 5,17 M5,15 6,15 6,16 5,16 M5,13 6,13 6,14 5,14 M5,14 6,14 6,15 5,15 M5,17 6,17 6,18 5,18 M5,18 6,18 6,19 5,19 M5,19 6,19 6,20 5,20 M5,20 6,20 6,21 5,21 M5,21 6,21 6,22 5,22 M5,22 6,22 6,23 5,23 M5,23 6,23 6,24 5,24 M5,24 6,24 6,25 5,25 M6,24 7,24 7,25 6,25 M7,24 8,24 8,25 7,25 M8,24 9,24 9,25 8,25 M9,24 10,24 10,25 9,25 M10,24 11,24 11,25 10,25 M11,24 12,24 12,25 11,25 M6,11 7,11 7,12 6,12 M7,11 8,11 8,12 7,12 M8,11 9,11 9,12 8,12 M9,11 10,11 10,12 9,12 M10,11 11,11 11,12 10,12 M11,11 12,11 12,12 11,12 M11,12 12,12 12,13 11,13 M11,13 12,13 12,14 11,14 M11,14 12,14 12,15 11,15 M11,15 12,15 12,16 11,16 M11,16 12,16 12,17 11,17 M11,17 12,17 12,18 11,18 M11,18 12,18 12,19 11,19 M11,19 12,19 12,20 11,20 M11,20 12,20 12,21 11,21 M11,21 12,21 12,22 11,22 M11,22 12,22 12,23 11,23 M11,23 12,23 12,24 11,24 M10,23 11,23 11,24 10,24 M9,23 10,23 10,24 9,24 M8,23 9,23 9,24 8,24 M7,23 8,23 8,24 7,24 M6,23 7,23 7,24 6,24 M6,22 7,22 7,23 6,23 M6,21 7,21 7,22 6,22 M6,20 7,20 7,21 6,21 M6,19 7,19 7,20 6,20 M6,18 7,18 7,19 6,19 M6,17 7,17 7,18 6,18 M6,16 7,16 7,17 6,17 M6,15 7,15 7,16 6,16 M6,14 7,14 7,15 6,15 M6,13 7,13 7,14 6,14 M9,12 10,12 10,13 9,13 M10,12 11,12 11,13 10,13 M10,13 11,13 11,14 10,14 M10,14 11,14 11,15 10,15 M10,15 11,15 11,16 10,16 M10,16 11,16 11,17 10,17 M10,17 11,17 11,18 10,18 M10,18 11,18 11,19 10,19 M10,19 11,19 11,20 10,20 M10,20 11,20 11,21 10,21 M10,21 11,21 11,22 10,22 M10,22 11,22 11,23 10,23 M8,22 9,22 9,23 8,23 M7,22 8,22 8,23 7,23 M7,21 8,21 8,22 7,22 M7,20 8,20 8,21 7,21 M7,19 8,19 8,20 7,20 M7,18 8,18 8,19 7,19 M7,17 8,17 8,18 7,18 M7,16 8,16 8,17 7,17 M7,15 8,15 8,16 7,16 M7,14 8,14 8,15 7,15 M7,13 8,13 8,14 7,14 M7,12 8,12 8,13 7,13 M8,12 9,12 9,13 8,13 M8,13 9,13 9,14 8,14 M9,13 10,13 10,14 9,14 M9,14 10,14 10,15 9,15 M9,15 10,15 10,16 9,16 M9,16 10,16 10,17 9,17 M9,17 10,17 10,18 9,18 M9,18 10,18 10,19 9,19 M9,19 10,19 10,20 9,20 M9,20 10,20 10,21 9,21 M9,21 10,21 10,22 9,22 M9,22 10,22 10,23 9,23 M8,21 9,21 9,22 8,22 M8,20 9,20 9,21 8,21 M8,19 9,19 9,20 8,20 M8,18 9,18 9,19 8,19 M8,17 9,17 9,18 8,18 M8,16 9,16 9,17 8,17 M8,15 9,15 9,16 8,16 M8,14 9,14 9,15 8,15 " fill="#bf3f40"></path><path d="M12,11 13,11 13,12 12,12 M13,11 14,11 14,12 13,12 M14,11 15,11 15,12 14,12 M26,11 27,11 27,12 26,12 M25,11 26,11 26,12 25,12 M24,11 25,11 25,12 24,12 M23,11 24,11 24,12 23,12 M22,11 23,11 23,12 22,12 M21,11 22,11 22,12 21,12 M20,11 21,11 21,12 20,12 M19,11 20,11 20,12 19,12 M18,11 19,11 19,12 18,12 M17,11 18,11 18,12 17,12 M16,11 17,11 17,12 16,12 M15,11 16,11 16,12 15,12 M13,12 14,12 14,13 13,13 M12,12 13,12 13,13 12,13 M12,13 13,13 13,14 12,14 M12,14 13,14 13,15 12,15 M12,15 13,15 13,16 12,16 M12,16 13,16 13,17 12,17 M12,17 13,17 13,18 12,18 M12,18 13,18 13,19 12,19 M12,19 13,19 13,20 12,20 M12,20 13,20 13,21 12,21 M12,21 13,21 13,22 12,22 M12,22 13,22 13,23 12,23 M12,23 13,23 13,24 12,24 M12,24 13,24 13,25 12,25 M13,24 14,24 14,25 13,25 M14,24 15,24 15,25 14,25 M15,24 16,24 16,25 15,25 M16,24 17,24 17,25 16,25 M17,24 18,24 18,25 17,25 M18,24 19,24 19,25 18,25 M19,24 20,24 20,25 19,25 M20,24 21,24 21,25 20,25 M21,24 22,24 22,25 21,25 M22,24 23,24 23,25 22,25 M23,24 24,24 24,25 23,25 M24,24 25,24 25,25 24,25 M25,24 26,24 26,25 25,25 M26,24 27,24 27,25 26,25 M26,23 27,23 27,24 26,24 M26,22 27,22 27,23 26,23 M26,21 27,21 27,22 26,22 M26,20 27,20 27,21 26,21 M26,19 27,19 27,20 26,20 M26,18 27,18 27,19 26,19 M26,17 27,17 27,18 26,18 M26,16 27,16 27,17 26,17 M26,15 27,15 27,16 26,16 M26,14 27,14 27,15 26,15 M26,13 27,13 27,14 26,14 M26,12 27,12 27,13 26,13 M25,12 26,12 26,13 25,13 M24,12 25,12 25,13 24,13 M23,12 24,12 24,13 23,13 M22,12 23,12 23,13 22,13 M21,12 22,12 22,13 21,13 M20,12 21,12 21,13 20,13 M19,12 20,12 20,13 19,13 M18,12 19,12 19,13 18,13 M17,12 18,12 18,13 17,13 M16,12 17,12 17,13 16,13 M15,12 16,12 16,13 15,13 M14,12 15,12 15,13 14,13 M13,15 14,15 14,16 13,16 M13,14 14,14 14,15 13,15 M13,13 14,13 14,14 13,14 M24,13 25,13 25,14 24,14 M25,13 26,13 26,14 25,14 M25,14 26,14 26,15 25,15 M25,15 26,15 26,16 25,16 M25,16 26,16 26,17 25,17 M25,17 26,17 26,18 25,18 M25,18 26,18 26,19 25,19 M25,19 26,19 26,20 25,20 M25,20 26,20 26,21 25,21 M25,21 26,21 26,22 25,22 M25,22 26,22 26,23 25,23 M24,23 25,23 25,24 24,24 M23,23 24,23 24,24 23,24 M22,23 23,23 23,24 22,24 M18,23 19,23 19,24 18,24 M17,23 18,23 18,24 17,24 M16,23 17,23 17,24 16,24 M13,23 14,23 14,24 13,24 M13,22 14,22 14,23 13,23 M13,21 14,21 14,22 13,22 M13,20 14,20 14,21 13,21 M13,19 14,19 14,20 13,20 M13,18 14,18 14,19 13,19 M13,17 14,17 14,18 13,18 M13,16 14,16 14,17 13,17 M14,23 15,23 15,24 14,24 M15,23 16,23 16,24 15,24 M19,23 20,23 20,24 19,24 M20,23 21,23 21,24 20,24 M21,23 22,23 22,24 21,24 M24,21 25,21 25,22 24,22 M24,22 25,22 25,23 24,23 M24,14 25,14 25,15 24,15 " fill="#d27979"></path><path d="M22,14 23,14 23,15 22,15 M23,14 24,14 24,15 23,15 M14,14 15,14 15,15 14,15 M14,15 15,15 15,16 14,16 M14,16 15,16 15,17 14,17 M14,17 15,17 15,18 14,18 M14,18 15,18 15,19 14,19 M14,19 15,19 15,20 14,20 M14,20 15,20 15,21 14,21 M14,21 15,21 15,22 14,22 M15,21 16,21 16,22 15,22 M16,21 17,21 17,22 16,22 M17,21 18,21 18,22 17,22 M18,21 19,21 19,22 18,22 M19,21 20,21 20,22 19,22 M20,21 21,21 21,22 20,22 M21,21 22,21 22,22 21,22 M22,21 23,21 23,22 22,22 M23,21 24,21 24,22 23,22 M23,20 24,20 24,21 23,21 M23,18 24,18 24,19 23,19 M23,16 24,16 24,17 23,17 M23,15 24,15 24,16 23,16 M16,14 17,14 17,15 16,15 M15,14 16,14 16,15 15,15 M15,15 16,15 16,16 15,16 M15,16 16,16 16,17 15,17 M15,17 16,17 16,18 15,18 M15,18 16,18 16,19 15,19 M15,19 16,19 16,20 15,20 M15,20 16,20 16,21 15,21 M16,20 17,20 17,21 16,21 M18,14 19,14 19,15 18,15 M17,14 18,14 18,15 17,15 M24,15 25,15 25,16 24,16 M24,16 25,16 25,17 24,17 M24,17 25,17 25,18 24,18 M24,18 25,18 25,19 24,19 M24,19 25,19 25,20 24,20 M24,20 25,20 25,21 24,21 M16,15 17,15 17,16 16,16 M19,17 20,17 20,18 19,18 M20,17 21,17 21,18 20,18 M19,16 20,16 20,17 19,17 M17,15 18,15 18,16 17,16 M20,16 21,16 21,17 20,17 M21,17 22,17 22,18 21,18 M18,19 19,19 19,20 18,20 M17,18 18,18 18,19 17,19 M19,15 20,15 20,16 19,16 M19,14 20,14 20,15 19,15 M20,14 21,14 21,15 20,15 M21,14 22,14 22,15 21,15 M21,15 22,15 22,16 21,16 M22,15 23,15 23,16 22,16 M21,18 22,18 22,19 21,19 M20,18 21,18 21,19 20,19 M18,18 19,18 19,19 18,19 M19,20 20,20 20,21 19,21 M20,19 21,19 21,20 20,20 M23,19 24,19 24,20 23,20 M22,20 23,20 23,21 22,21 M17,17 18,17 18,18 17,18 M18,17 19,17 19,18 18,18 M18,16 19,16 19,17 18,17 M23,17 24,17 24,18 23,18 M16,18 17,18 17,19 16,19 M16,19 17,19 17,20 16,20 M17,20 18,20 18,21 17,21 M21,20 22,20 22,21 21,21 M22,19 23,19 23,20 22,20 M22,18 23,18 23,19 22,19 M19,18 20,18 20,19 19,19 M18,15 19,15 19,16 18,16 M20,15 21,15 21,16 20,16 M16,16 17,16 17,17 16,17 M22,16 23,16 23,17 22,17 " fill="#131e48"></path><path d="M18,20 19,20 19,21 18,21 M19,19 20,19 20,20 19,20 " fill="#b1b6c8"></path><path d="M20,20 21,20 21,21 20,21 " fill="#b1b6c6"></path><path d="M17,19 18,19 18,20 17,20 M21,19 22,19 22,20 21,20 M17,16 18,16 18,17 17,17 M21,16 22,16 22,17 21,17 " fill="#b1b6c5"></path><path d="M16,17 17,17 17,18 16,18 M22,17 23,17 23,18 22,18 " fill="#b1b6c4"></path><path d="M12,25 13,25 13,26 12,26 M12,26 13,26 13,27 12,27 M12,27 13,27 13,28 12,28 M26,25 27,25 27,26 26,26 M26,26 27,26 27,27 26,27 M26,27 27,27 27,28 26,28 " fill="#845b33"></path><path d="M15,10 16,10 16,11 15,11 " fill="#45444f"></path><path d="M19,6 20,6 20,7 19,7 M11,6 12,6 12,7 11,7 " fill="#b8b5b9"></path><path d="M25,23 26,23 26,24 25,24 " fill="#00c672"></path><path d="M23,22 24,22 24,23 23,23 M22,22 23,22 23,23 22,23 M21,22 22,22 22,23 21,23 M20,22 21,22 21,23 20,23 M19,22 20,22 20,23 19,23 M18,22 19,22 19,23 18,23 M17,22 18,22 18,23 17,23 M16,22 17,22 17,23 16,23 M15,22 16,22 16,23 15,23 M14,22 15,22 15,23 14,23 M23,13 24,13 24,14 23,14 M22,13 23,13 23,14 22,14 M21,13 22,13 22,14 21,14 M20,13 21,13 21,14 20,14 M19,13 20,13 20,14 19,14 M18,13 19,13 19,14 18,14 M17,13 18,13 18,14 17,14 M16,13 17,13 17,14 16,14 M15,13 16,13 16,14 15,14 M14,13 15,13 15,14 14,14 " fill="#a04e4e"></path></svg>